<?xml version="1.0" encoding="utf-8"?>
<!-- Svg Vector Icons : http://www.onlinewebfonts.com/icon -->
<!DOCTYPE svg PUBLIC "-//W3C//DTD SVG 1.1//EN" "http://www.w3.org/Graphics/SVG/1.1/DTD/svg11.dtd">
<svg version="1.1" xmlns="http://www.w3.org/2000/svg" xmlns:xlink="http://www.w3.org/1999/xlink" x="0px" y="0px" viewBox="0 0 1000 1000" enable-background="new 0 0 1000 1000" xml:space="preserve">
<metadata> Svg Vector Icons : http://www.onlinewebfonts.com/icon </metadata>
<g><path d="M714.4,469.4H390.2l126.2-126.2c11.9-11.9,11.9-31.2,0-43.5c-12-11.9-31.4-11.9-43.3,0L299.8,473c-7.3,7.3-9.6,17.5-7.9,27c-1.7,9.5,0.6,19.6,7.9,27l173.2,173.3c12,11.9,31.4,11.9,43.3,0c11.9-11.9,11.9-31.5,0-43.5L390.2,530.6h324.2c16.9,0,30.6-13.8,30.6-30.6C745,483.2,731.3,469.4,714.4,469.4L714.4,469.4z M500,928.8c-236.8,0-428.8-192-428.8-428.8c0-236.7,192-428.8,428.8-428.8c236.8,0,428.8,192,428.8,428.8C928.8,736.7,736.8,928.8,500,928.8L500,928.8z M500,10C229.4,10,10,229.3,10,500c0,270.7,219.4,490,490,490s490-219.3,490-490C990,229.3,770.6,10,500,10L500,10z"/></g>
</svg>